<svg xmlns:dc="http://purl.org/dc/elements/1.1/" xmlns:cc="http://creativecommons.org/ns#" xmlns:rdf="http://www.w3.org/1999/02/22-rdf-syntax-ns#" xmlns:svg="http://www.w3.org/2000/svg" xmlns="http://www.w3.org/2000/svg" xmlns:sodipodi="http://sodipodi.sourceforge.net/DTD/sodipodi-0.dtd" xmlns:inkscape="http://www.inkscape.org/namespaces/inkscape" width="64" height="64" viewBox="0 0 16.933333 16.933333" version="1.1" id="svg8" inkscape:version="0.92.3 (2405546, 2018-03-11)" sodipodi:docname="18-Diamond.svg">
  <defs id="defs2"></defs>
  <sodipodi:namedview id="base" pagecolor="#ffffff" bordercolor="#666666" borderopacity="1.0" inkscape:pageopacity="0.0" inkscape:pageshadow="2" inkscape:zoom="2" inkscape:cx="-52.916678" inkscape:cy="11.85484" inkscape:document-units="px" inkscape:current-layer="layer2" showgrid="false" inkscape:snap-smooth-nodes="true" inkscape:snap-page="true" inkscape:snap-midpoints="false" inkscape:snap-intersection-paths="true" inkscape:object-paths="true" inkscape:object-nodes="true" units="px" inkscape:snap-bbox="true" inkscape:bbox-paths="false" inkscape:snap-bbox-midpoints="false" inkscape:window-width="1366" inkscape:window-height="728" inkscape:window-x="0" inkscape:window-y="0" inkscape:window-maximized="1" inkscape:snap-grids="true" inkscape:snap-to-guides="false" inkscape:snap-bbox-edge-midpoints="false" inkscape:snap-nodes="true" inkscape:snap-others="false" inkscape:bbox-nodes="true" showguides="true" inkscape:guide-bbox="true" inkscape:measure-start="0,0" inkscape:measure-end="0,0" inkscape:snap-global="true" inkscape:lockguides="true">
    <inkscape:grid type="xygrid" id="grid815" enabled="true"></inkscape:grid>
  </sodipodi:namedview>
  <metadata id="metadata5">
    <rdf:rdf>
      <cc:work rdf:about="">
        <dc:format>image/svg+xml</dc:format>
        <dc:type rdf:resource="http://purl.org/dc/dcmitype/StillImage"></dc:type>
        <dc:title></dc:title>
      </cc:work>
    </rdf:rdf>
  </metadata>
  <g inkscape:groupmode="layer" id="layer2" inkscape:label="18-Diamond">
    <path inkscape:connector-curvature="0" id="path820" d="M 8.2103547,0.19904644 C 8.0654235,0.76590871 7.7191433,1.184793 7.3148146,1.3395365 c -0.2270514,0.086897 -0.2288015,0.4067379 -0.00201,0.49454 0.4038187,0.1563379 0.7525191,0.5759577 0.89864,1.1425599 0.067809,0.2629377 0.4436195,0.2628998 0.5115903,0 0.1464592,-0.5664801 0.4936589,-0.9852632 0.8976003,-1.1410099 0.2261687,-0.087203 0.22609,-0.40661 0,-0.49402 -0.4038902,-0.15615 -0.752,-0.57555269 -0.8965604,-1.14256006 -0.02929,-0.11488263 -0.13159,-0.19616 -0.2526451,-0.19906 -0.1210551,-0.0029 -0.2304562,0.07930227 -0.261075,0.19906 z M 15.353467,1.5219565 c -0.144931,0.5668598 -0.491201,0.9857465 -0.895531,1.1404901 -0.227051,0.086896 -0.22881,0.4067334 -0.002,0.4945398 0.403821,0.1563336 0.752517,0.5759585 0.898631,1.14256 0.06781,0.2629384 0.443623,0.2628982 0.51159,0 0.146453,-0.5664819 0.493659,-0.9852621 0.89761,-1.14101 0.226169,-0.087202 0.226085,-0.4066076 0,-0.49402 -0.403864,-0.1561476 -0.751969,-0.5755624 -0.896529,-1.1425599 -0.02929,-0.1148825 -0.13159,-0.19616 -0.252666,-0.19906 -0.121075,-0.0029 -0.230486,0.0793 -0.261105,0.19906 z M 8.4666649,3.7042366 c -0.1322801,0 -0.2645803,0.0882 -0.2645803,0.2645799 v 0.7952999 c 0,0.3607501 0.5291602,0.3607501 0.5291602,0 V 3.9688165 c 0,-0.17637 -0.1322999,-0.2645799 -0.2645799,-0.2645799 z M 1.0667133,4.1677664 c -0.14492531,0.5668713 -0.49120155,0.9857463 -0.89554023,1.1405 -0.22704147,0.086896 -0.22880406,0.4067346 -0.002,0.4945401 0.40381609,0.1563345 0.75251841,0.5759479 0.89864023,1.14256 0.067808,0.2629379 0.4436129,0.2628981 0.5115801,0 0.1464529,-0.566482 0.4936688,-0.9852633 0.8976102,-1.1410101 0.2261687,-0.087203 0.2260907,-0.4066212 0,-0.49403 -0.4038995,-0.1561513 -0.7520078,-0.575553 -0.8965702,-1.14256 -0.029288,-0.114873 -0.13159,-0.1961499 -0.25264,-0.1990499 -0.12105,-0.0029 -0.2304654,0.079301 -0.2610801,0.1990499 z m 10.1563227,0.5746599 -0.54931,0.5493199 c -0.26387,0.2639301 0.10846,0.6383401 0.37258,0.37465 l 0.5519,-0.5508699 c 0.25782,-0.2573387 -0.129553,-0.6187209 -0.37517,-0.3731 z m -5.893602,0.3730991 0.5601701,0.56223 c 0.2549902,0.2559399 0.6306203,-0.11918 0.3751603,-0.37465 L 5.7040841,4.7424264 C 5.4573419,4.4956848 5.0745791,4.8597333 5.329434,5.1155254 Z M 4.4106439,6.5298955 6.1882844,9.1374753 7.9659247,6.5298955 Z m 4.5567511,0 1.778681,2.6080997 1.77815,-2.6080997 z M 3.909904,6.7350563 2.2392336,9.1876064 h 3.3470305 z m 9.114032,0 -1.67016,2.4525501 h 3.340311 z M 8.4671747,6.7355855 6.7970244,9.1876154 H 10.137336 Z M 2.2888436,9.7167564 7.8553446,16.712666 5.8802943,9.7167564 Z m 4.1412808,0 2.0370503,7.2165696 2.0370613,-7.2165696 z m 4.6244516,0 -1.9745211,6.9959096 5.5659821,-6.9959096 z m 4.298891,1.6128096 c -0.144931,0.56686 -0.491201,0.985746 -0.895531,1.14049 -0.227051,0.0869 -0.22881,0.406734 -0.002,0.49454 0.403821,0.156334 0.752517,0.575958 0.898631,1.14256 0.06781,0.262938 0.443623,0.262898 0.51159,0 0.146453,-0.566482 0.49366,-0.98526 0.89761,-1.14101 0.22616,-0.0872 0.226091,-0.406613 0,-0.49402 -0.403909,-0.156153 -0.752018,-0.575553 -0.89657,-1.14256 -0.02929,-0.114883 -0.13159,-0.19616 -0.252645,-0.19906 -0.121055,-0.0029 -0.230466,0.0793 -0.261085,0.19906 z m -14.2867537,1.58594 c -0.14492487,0.566861 -0.49120275,0.985743 -0.89554023,1.14049 -0.22704267,0.08689 -0.22882816,0.406729 -0.002,0.49454 0.40382199,0.156329 0.75251917,0.575958 0.89864023,1.14256 0.067809,0.262938 0.4436122,0.262898 0.5115801,0 0.1464522,-0.566472 0.4936688,-0.985263 0.8976102,-1.14101 0.2261687,-0.0872 0.2260906,-0.406611 0,-0.49402 -0.4038996,-0.156151 -0.7520098,-0.575553 -0.8965702,-1.14256 -0.02929,-0.114883 -0.13159,-0.19616 -0.25264,-0.199055 -0.12105,-0.0029 -0.2304649,0.07931 -0.2610801,0.199055 z" style="color: rgb(0, 0, 0); font-style: normal; font-variant: normal; font-weight: normal; font-stretch: normal; font-size: medium; line-height: normal; font-family: sans-serif; font-feature-settings: normal; text-indent: 0px; text-align: start; text-decoration: none solid rgb(0, 0, 0); letter-spacing: normal; word-spacing: normal; text-transform: none; writing-mode: lr-tb; direction: ltr; text-orientation: mixed; dominant-baseline: auto; baseline-shift: baseline; text-anchor: start; white-space: normal; clip-rule: nonzero; display: inline; overflow: visible; visibility: visible; opacity: 1; isolation: auto; mix-blend-mode: normal; color-interpolation: srgb; color-interpolation-filters: linearrgb; vector-effect: none; fill: rgb(255, 255, 255); fill-opacity: 1; fill-rule: nonzero; stroke: none; stroke-width: 0.529167; stroke-linecap: butt; stroke-linejoin: round; stroke-miterlimit: 4; stroke-dasharray: none; stroke-dashoffset: 0; stroke-opacity: 1; color-rendering: auto; image-rendering: auto; shape-rendering: auto; text-rendering: auto;" sodipodi:nodetypes="sssssssssssssssssssssssssssssssssssssccsssccssccccccccccccccccccccccccccccccccssssssssssssssssssss"></path>
  </g>
</svg>