<svg xmlns="http://www.w3.org/2000/svg" xml:space="preserve" width="7.11111in" height="7.11111in" version="1.1" style="shape-rendering:geometricPrecision; text-rendering:geometricPrecision; image-rendering:optimizeQuality; fill-rule:evenodd; clip-rule:evenodd" viewBox="0 0 7111 7111" xmlns:xlink="http://www.w3.org/1999/xlink">
 <defs>
  <style type="text/css">
   
    .fil0 {fill:black}
   
  </style>
 </defs>
 <g id="Layer_x0020_1">
  <metadata id="CorelCorpID_0Corel-Layer"></metadata>
  <g id="_484050264">
   <g>
    <g>
     <path class="fil0" d="M3556 5438c-704,0 -1403,-172 -2022,-498 -598,-315 -1123,-775 -1515,-1328 -23,-33 -23,-79 0,-112 393,-553 917,-1012 1515,-1327 618,-326 1318,-499 2022,-499 703,0 1402,173 2021,499 598,316 1123,774 1515,1327 23,33 23,79 0,112 -393,553 -917,1011 -1515,1328 -619,325 -1318,498 -2021,498zm-3337 -1882c779,1057 2022,1686 3337,1686 1314,0 2557,-629 3336,-1686 -779,-1058 -2020,-1689 -3336,-1689 -1317,0 -2558,631 -3337,1689z" id="id_101" style="fill: rgb(255, 255, 255);"></path>
    </g>
    <g>
     <path class="fil0" d="M3556 4908c-746,0 -1353,-607 -1353,-1352 0,-746 607,-1353 1353,-1353 745,0 1352,607 1352,1353 0,745 -607,1352 -1352,1352zm0 -2510c-639,0 -1158,519 -1158,1158 0,638 519,1157 1158,1157 638,0 1157,-519 1157,-1157 0,-639 -519,-1158 -1157,-1158z" id="id_102" style="fill: rgb(255, 255, 255);"></path>
    </g>
    <g>
     <path class="fil0" d="M3556 2956c-55,0 -98,-43 -98,-97l0 -559c0,-54 43,-97 98,-97 54,0 97,43 97,97l0 559c0,52 -43,97 -97,97z" id="id_103" style="fill: rgb(255, 255, 255);"></path>
    </g>
    <g>
     <path class="fil0" d="M4811 3653l-558 0c-55,0 -98,-43 -98,-97 0,-55 43,-98 98,-98l558 0c54,0 97,43 97,98 0,54 -43,97 -97,97z" id="id_104" style="fill: rgb(255, 255, 255);"></path>
    </g>
    <g>
     <path class="fil0" d="M3556 4908c-55,0 -98,-43 -98,-97l0 -558c0,-55 43,-98 98,-98 54,0 97,43 97,98l0 558c0,54 -43,97 -97,97z" id="id_105" style="fill: rgb(255, 255, 255);"></path>
    </g>
    <g>
     <path class="fil0" d="M2857 3653l-558 0c-54,0 -97,-43 -97,-97 0,-55 43,-98 97,-98l558 0c54,0 97,43 97,98 0,54 -43,97 -97,97z" id="id_106" style="fill: rgb(255, 255, 255);"></path>
    </g>
    <g>
     <path class="fil0" d="M6739 6838l-1533 0c-54,0 -97,-43 -97,-98 0,-54 43,-97 97,-97l1437 0 0 -1287c0,-54 43,-97 97,-97 55,0 98,43 98,97l0 1384c-2,53 -45,98 -99,98zm-4834 0l-1533 0c-54,0 -97,-43 -97,-98l0 -1384c0,-54 43,-97 97,-97 54,0 97,43 97,97l0 1287 1437 0c54,0 97,43 97,97 0,55 -44,98 -98,98zm4834 -4685c-54,0 -97,-43 -97,-97l0 -1588 -1436 0c-54,0 -97,-43 -97,-97 0,-54 43,-97 97,-97l1534 0c55,0 98,43 98,97l0 1685c-2,53 -45,97 -99,97zm-6367 0c-54,0 -97,-43 -97,-97l0 -1685c0,-54 43,-97 97,-97l1534 0c54,0 97,43 97,97 0,54 -43,97 -97,97l-1437 0 0 1588c0,53 -44,97 -97,97z" id="id_107" style="fill: rgb(255, 255, 255);"></path>
    </g>
    <g>
     <path class="fil0" d="M5183 4583c-34,0 -67,-17 -85,-49 -26,-45 -11,-105 35,-133 368,-214 694,-505 948,-845 -254,-342 -580,-634 -948,-847 -46,-27 -63,-86 -35,-134 26,-45 86,-62 133,-34 411,238 775,570 1050,958 23,33 23,79 0,112 -276,387 -639,719 -1050,958 -15,10 -33,14 -48,14zm-3255 0c-16,0 -33,-4 -48,-13 -411,-238 -775,-569 -1050,-958 -23,-33 -23,-79 0,-112 275,-389 639,-719 1050,-958 46,-26 105,-11 133,35 26,46 11,105 -35,133 -368,214 -694,505 -948,847 254,341 580,633 948,845 46,27 63,87 35,134 -18,30 -50,47 -85,47z" id="id_108" style="fill: rgb(255, 255, 255);"></path>
    </g>
   </g>
  </g>
 </g>
</svg>